#!OML:ASF X:\für Bonn\!DataBase\2005_08_11_Bastian_Final\c3d\Bastian.ASF
:FULLY-SPECIFIED
:DEGREES
181
root 8.13946 8.5909 -4.33196 184.304 85.704 -161.923
lowerback 69.8288 -5.67495 5.87041
upperback 19.0166 4.94325 6.69912
thorax 0.110224 4.25101 3.32134
lowerneck -8.02176 -11.2769 -0.874971
upperneck -25.5275 -12.7944 13.2458
head -5.47225 -6.81841 4.5407
rclavicle 3.18055e-015 1.59028e-014
rhumerus 29.7163 0.329336 -50.8086
rradius 24.348
rwrist 9.71074
rhand -48.2583 0.57474
rfingers 7.12502
rthumb -20.9166 -28.3176
lclavicle 3.18055e-015 1.59028e-014
lhumerus 3.3987 -24.9479 80.6644
lradius 41.9684
lwrist 21.8535
lhand -13.1227 -10.2114
lfingers 7.12502
lthumb 12.9749 19.3651
rfemur -79.0028 -10.136 21.4743
rtibia 132.071
rfoot -31.5522 -2.20069
rtoes -7.19295
lfemur -59.685 25.0639 -27.5845
ltibia 143.198
lfoot -50.5703 -8.06004
ltoes 3.70738
182
root 8.13499 8.66911 -4.32574 184.909 85.6493 -161.545
lowerback 69.6669 -5.66257 5.90866
upperback 18.9863 4.93493 6.69016
thorax 0.067945 4.24101 3.28956
lowerneck -8.18126 -11.2395 -0.947682
upperneck -25.5347 -12.733 13.2215
head -5.44967 -6.77003 4.53456
rclavicle 2.54444e-014 -6.44062e-014
rhumerus 29.9263 0.601174 -50.7175
rradius 23.9232
rwrist 9.39585
rhand -47.9751 0.409136
rfingers 7.12502
rthumb -20.6445 -28.513
lclavicle 2.54444e-014 -6.44062e-014
lhumerus 3.50445 -24.8882 80.6352
lradius 41.8692
lwrist 21.7416
lhand -13.0944 -10.2268
lfingers 7.12502
lthumb 13.0022 19.348
rfemur -78.6828 -9.87426 21.5073
rtibia 131.468
rfoot -31.451 -2.329
rtoes -7.17632
lfemur -59.6002 24.3096 -27.499
ltibia 142.51
lfoot -50.3956 -8.10969
ltoes 3.76599
183
root 8.13023 8.75194 -4.31852 185.068 85.5746 -161.606
lowerback 69.5425 -5.65048 5.93472
upperback 18.9271 4.92358 6.68483
thorax -0.00662651 4.22652 3.26703
lowerneck -8.40622 -11.2231 -1.0143
upperneck -25.3948 -12.7216 13.1686
head -5.36926 -6.74334 4.50589
rclavicle 9.54166e-015 8.26944e-014
rhumerus 30.1316 0.804033 -50.709
rradius 23.4851
rwrist 9.18912
rhand -47.6776 0.363875
rfingers 7.12502
rthumb -20.3586 -28.589
lclavicle 9.54166e-015 8.26944e-014
lhumerus 3.65836 -24.7427 80.6701
lradius 41.6804
lwrist 21.5688
lhand -12.966 -10.2161
lfingers 7.12502
lthumb 13.126 19.3507
rfemur -78.3308 -9.67372 21.5149
rtibia 130.835
rfoot -31.3561 -2.45957
rtoes -7.26191
lfemur -59.4838 23.5062 -27.4474
ltibia 141.77
lfoot -50.1841 -8.09816
ltoes 3.71091
184
root 8.12576 8.84328 -4.31163 185.778 85.505 -161.036
lowerback 69.5448 -5.6547 5.97568
upperback 18.8321 4.92478 6.67411
thorax -0.111907 4.21846 3.23101
lowerneck -8.59039 -11.2025 -0.997606
upperneck -25.2691 -12.7222 13.0279
head -5.3134 -6.72619 4.44197
rclavicle 6.36111e-015 -3.97569e-015
rhumerus 30.2587 1.02067 -50.7116
rradius 23.1592
rwrist 8.9921
rhand -47.3879 0.340029
rfingers 7.12502
rthumb -20.0802 -28.6423
lclavicle 6.36111e-015 -3.97569e-015
lhumerus 3.83804 -24.6078 80.6987
lradius 41.43
lwrist 21.3881
lhand -12.8206 -10.2507
lfingers 7.12502
lthumb 13.2661 19.3071
rfemur -77.7868 -9.40752 21.531
rtibia 130.123
rfoot -31.3194 -2.57358
rtoes -7.25543
lfemur -59.2052 22.807 -27.2359
ltibia 140.97
lfoot -49.9796 -8.2098
ltoes 3.74808
185
root 8.12102 8.94359 -4.30444 185.672 85.4456 -161.241
lowerback 69.6574 -5.66765 6.00366
upperback 18.6801 4.91752 6.62192
thorax -0.271038 4.20812 3.15749
lowerneck -8.57735 -11.1709 -0.936116
upperneck -25.3054 -12.6913 12.9159
head -5.3435 -6.70704 4.40208
rclavicle 5.08889e-014 1.51076e-014
rhumerus 30.3538 1.13372 -50.8505
rradius 22.8135
rwrist 8.89891
rhand -46.9807 0.469082
rfingers 7.12502
rthumb -19.6887 -28.5538
lclavicle 5.08889e-014 1.51076e-014
lhumerus 3.98867 -24.5831 80.6794
lradius 41.2192
lwrist 21.2257
lhand -12.7775 -10.256
lfingers 7.12502
lthumb 13.3077 19.2991
rfemur -77.1377 -9.15537 21.4832
rtibia 129.35
rfoot -31.2538 -2.67791
rtoes -7.24501
lfemur -58.7947 22.0568 -27.0839
ltibia 140.064
lfoot -49.7647 -8.22205
ltoes 3.63915
186
root 8.11677 9.05352 -4.29746 186.287 85.3735 -160.777
lowerback 69.7685 -5.70395 6.09389
upperback 18.4793 4.9143 6.56368
thorax -0.480241 4.19794 3.04811
lowerneck -8.41487 -11.1358 -0.795952
upperneck -25.4448 -12.6632 12.7405
head -5.44155 -6.69808 4.34651
rclavicle -1.59028e-014 -4.45278e-014
rhumerus 30.3382 1.46412 -50.8586
rradius 22.5562
rwrist 8.5436
rhand -46.5019 0.617188
rfingers 7.12502
rthumb -19.2283 -28.4522
lclavicle -1.59028e-014 -4.45278e-014
lhumerus 4.08428 -24.5226 80.7077
lradius 40.9992
lwrist 21.0526
lhand -12.6692 -10.3141
lfingers 7.12502
lthumb 13.4121 19.2342
rfemur -76.4653 -8.85372 21.4821
rtibia 128.494
rfoot -31.1749 -2.8016
rtoes -7.17721
lfemur -58.3975 21.3093 -26.8685
ltibia 139.092
lfoot -49.515 -8.27328
ltoes 3.61293
187
root 8.11356 9.16932 -4.29007 186.893 85.3097 -160.414
lowerback 69.7996 -5.73636 6.20068
upperback 18.2753 4.90309 6.48785
thorax -0.694734 4.18369 2.91213
lowerneck -8.24996 -11.0957 -0.686472
upperneck -25.5851 -12.6136 12.6337
head -5.53337 -6.68003 4.31646
rclavicle -1.01778e-013 -3.57812e-014
rhumerus 30.2518 1.93633 -50.7631
rradius 22.3968
rwrist 8.02164
rhand -45.9835 0.798566
rfingers 7.12502
rthumb -18.7298 -28.3197
lclavicle -1.01778e-013 -3.57812e-014
lhumerus 4.17076 -24.5628 80.6594
lradius 40.8536
lwrist 20.8888
lhand -12.6545 -10.3478
lfingers 7.12502
lthumb 13.4262 19.1995
rfemur -75.8873 -8.54971 21.5125
rtibia 127.596
rfoot -31.0674 -2.9885
rtoes -7.47073
lfemur -58.1393 20.5252 -26.698
ltibia 138.074
lfoot -49.1631 -8.36172
ltoes 3.8338
188
root 8.11032 9.29106 -4.28196 187.02 85.2392 -160.554
lowerback 69.7934 -5.73954 6.25859
upperback 18.075 4.88758 6.44264
thorax -0.916353 4.159 2.82936
lowerneck -8.12292 -11.0594 -0.615546
upperneck -25.6657 -12.5799 12.4955
head -5.59861 -6.66276 4.2765
rclavicle -3.18055e-015 -4.77083e-015
rhumerus 30.116 2.62542 -50.4793
rradius 22.3058
rwrist 7.26044
rhand -45.5061 1.01597
rfingers 7.12502
rthumb -18.2706 -28.146
lclavicle -3.18055e-015 -4.77083e-015
lhumerus 4.22882 -24.4921 80.7062
lradius 40.6942
lwrist 20.6831
lhand -12.62 -10.3877
lfingers 7.12502
lthumb 13.4595 19.1574
rfemur -75.3125 -8.24025 21.4999
rtibia 126.648
rfoot -30.911 -3.16628
rtoes -7.59452
lfemur -57.858 19.6803 -26.5911
ltibia 136.995
lfoot -48.8602 -8.34144
ltoes 3.68444
